<?xml version="1.0"?>

<svg width="100%" height="100%" viewBox="0 0 1004 1004" version="1.1" xmlns="http://www.w3.org/2000/svg" xmlns:xlink="http://www.w3.org/1999/xlink" xml:space="preserve" xmlns:serif="http://www.serif.com/" style="fill-rule:evenodd;clip-rule:evenodd;stroke-linejoin:round;stroke-miterlimit:2;">
    <g transform="matrix(1,0,0,1,0,-575.986)">
        <g id="simbol" transform="matrix(0.801726,0,0,0.917875,1113.88,207.031)">
            <rect x="-1389.35" y="401.966" width="1252.22" height="1093.76" style="fill:none;"></rect>
            <g transform="matrix(5.19712,0,0,4.53947,-553.49,764.91)">
                <path d="M0,81.206C-26.287,81.238 -38.452,59.454 -49.327,44.338C-60.549,28.71 -69.469,24.444 -80.385,24.388C-88.804,24.343 -102.52,28.953 -102.494,44.32C-102.484,59.694 -87.659,64.354 -80.332,64.35C-69.698,64.336 -64.558,59.37 -62.351,57.408C-61.78,56.9 -61.067,56.624 -60.303,56.624L-52.292,56.624C-49.743,56.624 -47.677,58.69 -47.677,61.239L-47.677,76.591C-47.677,77.875 -48.206,79.034 -49.054,79.871C-49.89,80.708 -51.044,81.228 -52.321,81.228L-58.482,81.228C-60.924,81.228 -62.872,79.335 -63.036,76.937L-63.075,76.921C-67.944,79.085 -70.926,81.191 -80.058,81.206C-105.036,81.238 -120.12,61.858 -120.137,44.32C-120.156,25.882 -104.241,7.456 -80.058,7.437C-53.312,7.405 -41.179,31.172 -30.845,44.316C-20.057,58.039 -13.34,64.204 -0.03,64.257C13.999,64.317 22.282,54.413 22.271,44.32C22.256,32.556 11.885,24.294 -0.074,24.301C-9.828,24.311 -15.497,29.447 -17.787,31.34C-18.34,31.797 -19.007,32.031 -19.725,32.031L-27.813,32.031C-30.362,32.031 -32.429,29.964 -32.429,27.415L-32.429,-6.385C-32.429,-8.934 -30.362,-11.001 -27.813,-11.001L-21.651,-11.001C-19.103,-11.001 -17.036,-8.955 -17.036,-6.406C-17.037,-1.218 -17.038,7.086 -17.035,11.59C-11.769,9.451 -9.217,7.442 0,7.437C17.592,7.414 39.691,20.285 39.723,44.32C39.732,60.207 26.694,81.174 0,81.206M-40.207,-76.997C-105.155,-76.997 -157.807,-24.345 -157.807,40.603C-157.807,105.552 -109.233,158.203 -40.207,158.203C24.741,158.203 77.393,105.552 77.393,40.603C77.393,-24.345 24.741,-76.997 -40.207,-76.997" style="fill:rgb(0,111,155);fill-rule:nonzero;"></path>
            </g>
        </g>
    </g>
</svg>