<?xml version="1.0"?>

<svg width="100%" height="100%" viewBox="0 0 1420 447" version="1.1" xmlns="http://www.w3.org/2000/svg" xmlns:xlink="http://www.w3.org/1999/xlink" xml:space="preserve" xmlns:serif="http://www.serif.com/" style="fill-rule:evenodd;clip-rule:evenodd;stroke-linejoin:round;stroke-miterlimit:2;">
    <g transform="matrix(1,0,0,1,0,-1406)">
        <g id="ab-znak-bw" transform="matrix(1,0,0,1,0,1406.88)">
            <rect x="0" y="0" width="1419.06" height="445.991" style="fill:none;"></rect>
            <g id="Layer-1">
                <g transform="matrix(1,0,0,1,764.831,229.892)">
                    <path d="M0,-14.127C10.304,-14.127 11.792,-20.55 11.725,-31.167C11.657,-46.241 4.541,-52.372 -16.84,-52.372C-43.099,-52.372 -49.348,-44.603 -50.767,-17.674C-50.992,-15.32 -49.799,-14.127 -47.445,-14.127L0,-14.127ZM-16.038,59.302C-60.12,59.302 -77.071,41.372 -77.071,-7.355C-77.071,-57.244 -59.25,-73.429 -17.997,-73.429C20.889,-73.429 36.839,-58.849 36.906,-31.009C36.974,-8.328 28.972,5.092 11.269,5.092L-46.77,5.092C-49.123,5.092 -50.316,6.511 -50.091,8.673C-46.961,32.831 -36.003,38.247 -12.783,38.247C-2.208,38.247 10.938,37.37 22.802,36.041C28.412,35.557 31.702,37.911 32.637,43.715C33.579,49.107 31.475,52.89 26.315,54.292C13.842,57.977 -3.839,59.302 -16.04,59.302L-16.038,59.302Z" style="fill:white;fill-rule:nonzero;"></path>
                </g>
                <g transform="matrix(1,0,0,1,831.5,138.227)">
                    <path d="M0,116.958L0,-24.456C0,-30.325 3.064,-33.356 8.9,-33.356L16.247,-33.356C22.116,-33.356 25.145,-30.325 25.145,-24.456L24.92,111.288C24.92,122.045 30.625,127.492 41.348,127.492L44.861,127.492C50.212,127.492 53.95,130.264 54.403,135.615L54.629,138.644C55.079,143.961 53.433,147.894 48.048,148.829C42.329,149.831 35.891,150.314 31.782,150.314C12.385,150.314 0,138.518 0,116.958" style="fill:white;fill-rule:nonzero;"></path>
                </g>
                <g transform="matrix(1,0,0,1,908.13,113.683)">
                    <path d="M0,163.504L0,55.012C0,49.144 3.063,46.112 8.897,46.112L16.02,46.112C21.888,46.112 24.919,49.144 24.919,55.012L24.919,163.504C24.919,169.373 21.888,172.404 16.02,172.404L8.897,172.404C3.063,172.404 0,169.339 0,163.504M-3.151,6.63C-3.151,-1.861 3.854,-8.9 12.571,-8.9C21.062,-8.9 28.101,-1.861 28.101,6.63C28.101,15.347 21.062,22.352 12.571,22.352C3.854,22.352 -3.151,15.347 -3.151,6.63" style="fill:white;fill-rule:nonzero;"></path>
                </g>
                <g transform="matrix(1,0,0,1,970.938,194.612)">
                    <path d="M0,59.993L0,-25.917C0,-31.785 3.063,-34.814 8.897,-34.814L16.244,-34.814C22.08,-34.814 25.145,-31.785 25.145,-25.917L25.145,52.68C25.145,68.748 29.279,73.527 41.224,73.527C54.096,73.527 65.729,70.83 83.036,62.377C84.488,61.668 85.197,60.7 85.197,59.022L85.197,-25.917C85.197,-31.785 88.229,-34.814 94.098,-34.814L101.445,-34.814C107.28,-34.814 110.343,-31.785 110.343,-25.917L110.343,82.544C110.343,88.379 107.313,91.475 101.476,91.475L97.386,91.475C91.81,91.475 88.987,89.347 88.296,85.281L88.004,82.632C87.778,80.501 86.132,79.984 83.745,81.405C67.192,91.209 50.839,94.807 34.297,94.807C12.066,94.807 0,82.707 0,59.993" style="fill:white;fill-rule:nonzero;"></path>
                </g>
                <g transform="matrix(1,0,0,1,1125.99,156.467)">
                    <path d="M0,129.62C-5.835,129.62 -8.9,126.588 -8.9,120.72L-8.9,12.228C-8.9,6.393 -5.902,3.33 -0.067,3.33L3.156,3.33C8.766,3.33 11.764,3.657 12.924,9.3L13.216,11.498C13.667,14.077 15.311,15.045 17.697,13.401C33.215,2.921 53.749,-0.002 63.656,-0.002C77.535,-0.002 87.113,2.212 94.546,13.336C95.931,15.464 97.384,15.689 99.962,13.854C115.614,3.374 130.23,-0.002 145.646,-0.002C168.001,-0.002 180,12.099 180,34.813L180,120.722C180,126.591 176.935,129.622 171.1,129.622L163.753,129.622C157.884,129.622 154.853,126.591 154.853,120.722L154.853,42.126C154.627,27.409 150.04,21.279 136.685,21.279C127.035,21.279 117.139,22.591 100.192,32.553C98.515,33.712 97.806,34.906 97.839,37.034C97.94,40.242 98.007,43.224 97.782,46.532L97.782,120.722C97.557,126.591 94.492,129.622 88.656,129.622L82.213,129.622C76.344,129.622 73.313,126.591 73.313,120.722L73.313,42.126C73.538,26.508 67.6,21.279 55.145,21.279C48.235,21.279 36.026,21.949 18.854,31.978C17.177,32.912 16.468,34.331 16.242,36.459L16.242,120.72C16.018,126.589 12.985,129.62 7.117,129.62L-0.005,129.62L0,129.62Z" style="fill:white;fill-rule:nonzero;"></path>
                </g>
                <g transform="matrix(1,0,0,1,273.881,183.006)">
                    <path d="M0,81.206C-26.287,81.238 -38.452,59.454 -49.326,44.338C-60.549,28.71 -69.469,24.444 -80.385,24.388C-88.804,24.343 -102.52,28.953 -102.494,44.32C-102.484,59.694 -87.659,64.354 -80.332,64.35C-69.698,64.336 -64.557,59.37 -62.351,57.408C-61.779,56.9 -61.066,56.624 -60.303,56.624L-52.292,56.624C-49.743,56.624 -47.677,58.69 -47.677,61.239L-47.677,76.591C-47.677,77.875 -48.206,79.034 -49.054,79.871C-49.889,80.708 -51.044,81.228 -52.32,81.228L-58.482,81.228C-60.924,81.228 -62.872,79.335 -63.036,76.937L-63.075,76.921C-67.943,79.085 -70.926,81.191 -80.058,81.206C-105.036,81.238 -120.12,61.858 -120.137,44.32C-120.156,25.882 -104.241,7.456 -80.058,7.437C-53.312,7.405 -41.178,31.172 -30.845,44.316C-20.057,58.039 -13.34,64.204 -0.03,64.257C13.999,64.317 22.282,54.413 22.271,44.32C22.256,32.556 11.885,24.294 -0.074,24.301C-9.828,24.311 -15.497,29.447 -17.786,31.34C-18.34,31.797 -19.007,32.031 -19.724,32.031L-27.813,32.031C-30.362,32.031 -32.429,29.964 -32.429,27.415L-32.429,-6.385C-32.429,-8.934 -30.362,-11.001 -27.813,-11.001L-21.651,-11.001C-19.103,-11.001 -17.036,-8.955 -17.036,-6.406C-17.037,-1.218 -17.038,7.086 -17.035,11.59C-11.769,9.451 -9.217,7.442 0,7.437C17.592,7.414 39.692,20.285 39.723,44.32C39.732,60.207 26.694,81.174 0,81.206M-40.207,-76.997C-105.155,-76.997 -157.807,-24.345 -157.807,40.603C-157.807,105.552 -109.233,158.203 -40.207,158.203C24.741,158.203 77.393,105.552 77.393,40.603C77.393,-24.345 24.741,-76.997 -40.207,-76.997" style="fill:white;fill-rule:nonzero;"></path>
                </g>
                <g transform="matrix(1,0,0,1,607.074,127.436)">
                    <path d="M0,140.703L0.002,140.698C-9.537,140.923 -22.707,139.595 -29.008,137.866C-31.814,137.156 -33.458,135.546 -33.458,132.515L-33.684,60.792C-33.684,57.535 -32.974,55.474 -30.846,54.99C-18.541,51.899 -7.942,50.755 0.896,50.755C21.834,50.755 30.227,57.758 30.227,95.617C30.227,129.869 21.632,140.253 0,140.703M3.834,29.027C-2.592,29.027 -16.841,29.721 -30.162,34.842C-33.453,36.035 -35.131,36.418 -34.646,32.677C-33.645,25.237 -33.453,20.859 -33.453,11.765L-33.453,-13.67C-33.453,-19.539 -36.518,-22.57 -42.354,-22.57L-49.7,-22.57C-55.535,-22.57 -58.601,-19.505 -58.601,-13.67L-58.601,154.369L-58.395,156.549C-57.088,162.906 -53.711,163.273 -47.394,163.273L-43.763,163.273C-39.374,163.273 -36.422,161.724 -34.941,158.742C-23.965,160.537 -11.083,161.753 -1.574,161.753L-1.569,161.758C43.463,161.758 56.092,138.228 56.092,96.52C56.092,38.36 34.65,29.027 3.834,29.027" style="fill:white;fill-rule:nonzero;"></path>
                </g>
                <g transform="matrix(1,0,0,1,496.839,185.578)">
                    <path d="M0,74.373C0,77.405 -1.644,79.015 -4.45,79.724C-10.751,81.454 -23.921,82.782 -33.46,82.556L-33.458,82.561C-55.09,82.111 -63.685,71.727 -63.685,37.475C-63.685,-0.384 -55.292,-7.387 -34.354,-7.387C-25.516,-7.387 -14.917,-6.242 -2.612,-3.151C-0.484,-2.667 0.226,-0.606 0.226,2.65L0,74.373ZM24.806,-24.035C23.499,-30.391 20.122,-30.758 13.805,-30.758L10.174,-30.758C4.231,-30.758 0.912,-27.929 0.328,-22.531C0.285,-22.528 -1.651,-22.703 -3.296,-23.3C-16.617,-28.42 -30.866,-29.114 -37.292,-29.114C-68.108,-29.114 -89.55,-19.782 -89.55,38.378C-89.55,80.087 -76.921,103.616 -31.889,103.616L-31.884,103.611C-22.435,103.611 -9.653,102.411 1.278,100.634C2.902,104.849 6.166,105.131 11.644,105.131L15.274,105.131C21.095,105.131 24.393,102.41 25.073,97.225L25.12,97.227L25.12,88.885C25.134,88.621 25.143,88.351 25.143,88.073L25.143,-20.872C25.143,-20.872 25.118,-20.873 25.104,-20.875L24.806,-24.035Z" style="fill:white;fill-rule:nonzero;"></path>
                </g>
            </g>
        </g>
    </g>
</svg>